<svg width="348" height="40" viewBox="0 0 348 40" fill="none" xmlns="http://www.w3.org/2000/svg">
<g clip-path="url(#clip0_48_243)">
<path d="M0 39.4602V6.44992C0 2.88786 2.86413 0.00439453 6.39221 0.00439453H39.488V11.8418L31.2689 11.8331C30.3836 11.8331 29.622 12.5507 29.622 13.444V19.7225L39.488 19.7312V31.5253L29.622 31.5122V39.4624H0V39.4602Z" fill="#C0C1C8"/>
<path d="M330.94 39.9957C323.311 39.9957 318.42 34.1984 318.42 26.09C318.42 17.9816 323.306 12.2428 330.94 12.2428C336.904 12.2428 340.665 15.2477 342.437 19.3843V0H347.167V39.458H342.437V32.8564C340.61 37.097 336.798 39.9979 330.94 39.9979V39.9957ZM323.202 26.09C323.202 32.7458 327.34 35.9133 332.5 35.9133C337.659 35.9133 342.277 32.6396 342.277 26.09C342.277 19.5404 337.709 16.3187 332.5 16.3187C327.29 16.3187 323.202 19.4342 323.202 26.09Z" fill="#C0C1C8"/>
<path d="M258.081 32.0497C258.081 27.8091 260.661 24.8562 267.001 24.2665L277.475 23.2476C277.26 18.4172 275.11 16.1061 270.275 16.1061C266.565 16.1061 263.829 17.8254 263.399 22.2806H258.669C259.262 16.2167 263.399 12.2427 270.384 12.2427C278.121 12.2427 282.255 17.021 282.255 24.2145V35.3798H286.178V39.4579H281.292C279.25 39.4579 278.069 38.2763 278.069 36.2384V32.8562C276.835 36.6156 273.717 39.9977 267.108 39.9977C259.262 39.9977 258.083 34.8443 258.083 32.0519H258.079L258.081 32.0497ZM262.811 31.4579C262.811 34.517 264.799 36.0736 267.865 36.0736C273.667 36.0736 277.481 31.9955 277.481 26.6275L267.808 27.6465C264.528 27.9695 262.811 28.8801 262.811 31.4579Z" fill="#C0C1C8"/>
<path d="M238.847 16.4816C238.847 13.958 240.082 12.7764 242.61 12.7764H257.703V16.8545H243.629V39.454H238.847V16.4794V16.4838V16.4816Z" fill="#C0C1C8"/>
<path d="M205.794 39.458V0H210.575V19.2174C212.348 15.1913 216.11 12.2385 222.016 12.2385C229.702 12.2385 234.537 17.9838 234.537 26.0857C234.537 34.1876 229.702 39.9913 222.016 39.9913C216.269 39.9913 212.452 37.1469 210.575 32.9041V39.4537H205.794V39.458ZM210.679 26.09C210.679 32.6916 215.247 35.9133 220.458 35.9133C225.67 35.9133 229.806 32.7979 229.806 26.09C229.806 19.3821 225.672 16.3187 220.458 16.3187C215.244 16.3187 210.679 19.5924 210.679 26.09Z" fill="#C0C1C8"/>
<path d="M175.596 25.7712C175.596 17.1294 180.754 12.2427 188.383 12.2427C196.012 12.2427 201.435 17.021 201.435 25.2855V27.0048H180.215C180.377 32.2123 183.118 36.1842 188.649 36.1842C193.216 36.1842 195.901 33.821 196.817 30.1202H201.544C200.472 35.059 196.925 39.9999 188.706 39.9999C180.001 39.9999 175.596 33.6649 175.596 25.7755V25.7712ZM180.274 23.6226H196.768C196.442 18.7923 193.168 15.9999 188.386 15.9999C183.981 15.9999 180.65 18.7923 180.274 23.6226Z" fill="#C0C1C8"/>
<path d="M130.29 39.4579V12.776H135.073V19.4882C136.419 15.5142 139.478 12.2427 144.742 12.2427C149.257 12.2427 151.836 14.9809 152.747 19.4362C154.197 15.4644 157.42 12.2427 162.849 12.2427C168.918 12.2427 171.821 16.6438 171.821 23.7852V39.4622H167.039V24.3749C167.039 19.2216 165.696 16.3251 161.718 16.3251C156.079 16.3251 153.447 21.2638 153.447 28.4053V39.4622H148.664V24.3749C148.664 19.2216 147.32 16.3251 143.345 16.3251C137.703 16.3251 135.073 21.2638 135.073 28.4053V39.4622H130.29V39.4579Z" fill="#C0C1C8"/>
<path d="M99.3562 32.0497C99.3562 27.8091 101.936 24.8562 108.276 24.2665L118.749 23.2476C118.534 18.4172 116.384 16.1061 111.55 16.1061C107.84 16.1061 105.104 17.8254 104.674 22.2806H99.9442C100.534 16.2167 104.674 12.2427 111.658 12.2427C119.396 12.2427 123.529 17.021 123.529 24.2145V35.3798H127.452V39.4579H122.566C120.526 39.4579 119.345 38.2763 119.345 36.2384V32.8562C118.11 36.6156 114.991 39.9977 108.383 39.9977C100.539 39.9977 99.3583 34.8443 99.3583 32.0519H99.354L99.3562 32.0497ZM104.086 31.4579C104.086 34.517 106.074 36.0736 109.135 36.0736C114.937 36.0736 118.751 31.9955 118.751 26.6275L109.083 27.6465C105.807 27.9695 104.086 28.8801 104.086 31.4579Z" fill="#C0C1C8"/>
<path d="M80.1313 16.4816C80.1313 13.958 81.366 12.7764 83.8938 12.7764H98.9934V16.8545H84.9201V39.454H80.1379V16.4794L80.1335 16.4838L80.1313 16.4816Z" fill="#C0C1C8"/>
<path d="M58.3135 16.8586V12.7805H64.1155V8.91713C64.1155 3.49707 66.9102 0.00439453 73.5172 0.00439453H78.1367V4.08244H73.3024C69.9175 4.08244 68.8977 5.63908 68.8977 9.02119V12.7805H76.6352V16.8586H68.8977V35.38H76.6352V39.4581H58.3135V35.38H64.1155V16.8586H58.3135Z" fill="#C0C1C8"/>
<path d="M314.52 22.2353C314.52 16.8131 311.727 13.3247 305.118 13.3247H292.247C290.622 13.3247 288.905 14.825 288.905 16.5551V22.1225L288.903 39.9892H293.688V17.4006H305.335C308.722 17.4006 309.74 18.9572 309.74 22.3393L309.749 39.9892H314.529L314.522 22.2309L314.52 22.2353Z" fill="#C0C1C8"/>
</g>
<defs>
<clipPath id="clip0_48_243">
<rect width="348" height="40" fill="white"/>
</clipPath>
</defs>
</svg>
