<svg width="139" height="42" viewBox="0 0 139 42" fill="none" xmlns="http://www.w3.org/2000/svg">
<g clip-path="url(#clip0_48_262)">
<path d="M124.544 34.1632C118.883 34.1632 113.315 30.8802 113.315 23.4103C113.315 15.8452 118.651 8.85107 126.91 8.85107C132.617 8.85107 138.139 12.0865 138.139 19.604C138.139 27.1691 132.849 34.1632 124.544 34.1632ZM120.971 22.9821C120.971 25.932 122.688 27.2642 124.822 27.2642C128.117 27.2642 130.483 23.3627 130.483 20.0322C130.483 17.0823 128.766 15.7501 126.632 15.7501C123.337 15.7501 120.971 19.6516 120.971 22.9821Z" fill="#ADADAD"/>
<path fill-rule="evenodd" clip-rule="evenodd" d="M117.872 6.04004L115.631 12.0287H111.553C111.883 12.488 112.164 13.0006 112.393 13.5692C115.088 20.2826 109.449 25.7969 103.02 25.7969H97.9163C97.174 25.797 96.5244 26.3205 96.5244 27.0817C96.5244 27.605 96.8956 28.0332 97.7307 28.0332H104.041C109.052 28.0332 111.465 30.2696 111.465 34.0759C111.465 38.3104 108.263 41.9738 102.603 41.9739H93.8797C89.1471 41.9739 87.1519 39.2619 87.1519 36.3596C87.1519 33.9331 88.7294 31.6968 91.6989 30.6976C90.771 29.746 90.2606 28.509 90.2606 27.1292C90.2606 24.893 91.8381 22.7996 95.1324 21.9907C94.0189 20.7537 93.555 19.2311 93.555 17.6134C93.555 13.1886 97.0348 8.85895 103.855 8.85894C106.227 8.85894 108.254 9.32769 109.801 10.3497L111.414 6.04004H117.872ZM96.1696 33.6003C94.8705 33.6003 94.1281 34.2662 94.1281 35.1702C94.1281 35.9314 94.6849 36.4072 95.5201 36.4072H102.526C103.686 36.4072 104.475 35.646 104.475 34.7896C104.475 34.0284 103.872 33.6003 102.99 33.6003H96.1696ZM103.64 14.5684C101.645 14.5684 100.485 16.1862 100.485 17.6612C100.485 19.2312 101.691 20.0877 103.176 20.0877C105.217 20.0877 106.331 18.4698 106.331 16.9949C106.331 15.4249 105.171 14.5685 103.64 14.5684Z" fill="#ADADAD"/>
<path d="M79.1079 33.4024V9.61279H85.6037V13.8949C86.2069 11.0878 88.1556 9.61279 91.1715 9.61279H92.6705V16.2739H90.2435C87.738 16.2739 86.5316 17.4158 86.5316 19.8899V33.4024H79.1079Z" fill="#ADADAD"/>
<path d="M66.4132 34.1636C59.2214 34.1636 54.5352 29.0251 54.5352 21.3648C54.5352 13.7998 59.2678 8.85156 66.2276 8.85156C73.5122 8.85156 77.8737 13.657 77.8737 21.3648C77.8737 22.3164 77.8272 23.3156 77.7345 24.2672H61.8198C62.1445 26.6461 63.7685 27.8832 66.4596 27.8832C68.3156 27.8832 69.4291 27.1219 69.8467 26.2179H77.5025C76.1569 30.9758 72.5842 34.1636 66.4132 34.1636ZM61.7734 18.5577H70.4035C70.4035 16.3214 69.0115 14.8465 66.2276 14.8465C63.5365 14.8465 61.959 16.2739 61.7734 18.5577Z" fill="#ADADAD"/>
<path d="M47.2057 33.4025C42.8443 33.4025 40.8027 31.5944 40.8027 26.8365V2.80908H48.2265V9.6129H54.3025V16.274H48.2265V24.8858C48.2265 26.1228 48.6905 26.7414 50.036 26.7414H54.3025V33.4025H47.2057Z" fill="#ADADAD"/>
<path d="M31.6792 33.4018C31.6792 24.72 31.6792 0.0966797 31.6792 0.0966797H39.103V33.4018H31.6792Z" fill="#ADADAD"/>
<path d="M22.5552 33.4021V9.37409H29.979V33.4021H22.5552ZM22.5552 7.47086V0.0966797H29.979V7.47086H22.5552Z" fill="#ADADAD"/>
<path d="M0.0297852 33.4021V0.0966797H20.8163V7.47145H7.68554V12.8003H20.8163V20.1751H7.68554V33.4021H0.0297852Z" fill="#ADADAD"/>
</g>
<defs>
<clipPath id="clip0_48_262">
<rect width="139" height="42" fill="white"/>
</clipPath>
</defs>
</svg>
